<?xml version="1.0" encoding="utf-8"?>
<!-- Generator: Adobe Illustrator 24.1.1, SVG Export Plug-In . SVG Version: 6.00 Build 0)  -->
<!DOCTYPE svg PUBLIC "-//W3C//DTD SVG 1.1//EN" "http://www.w3.org/Graphics/SVG/1.1/DTD/svg11.dtd" [
	<!ENTITY ns_extend "http://ns.adobe.com/Extensibility/1.0/">
	<!ENTITY ns_ai "http://ns.adobe.com/AdobeIllustrator/10.0/">
	<!ENTITY ns_graphs "http://ns.adobe.com/Graphs/1.0/">
	<!ENTITY ns_vars "http://ns.adobe.com/Variables/1.0/">
	<!ENTITY ns_imrep "http://ns.adobe.com/ImageReplacement/1.0/">
	<!ENTITY ns_sfw "http://ns.adobe.com/SaveForWeb/1.0/">
	<!ENTITY ns_custom "http://ns.adobe.com/GenericCustomNamespace/1.0/">
	<!ENTITY ns_adobe_xpath "http://ns.adobe.com/XPath/1.0/">
]>
<svg version="1.1" id="圖層_1" xmlns:x="&ns_extend;" xmlns:i="&ns_ai;" xmlns:graph="&ns_graphs;"
	 xmlns="http://www.w3.org/2000/svg" xmlns:xlink="http://www.w3.org/1999/xlink" x="0px" y="0px" width="398.3674316px"
	 height="150.3901825px" viewBox="0 0 398.3674316 150.3901825" style="enable-background:new 0 0 398.3674316 150.3901825;"
	 xml:space="preserve">
<style type="text/css">
	.st0{fill:#F5B919;}
</style>
<metadata>
	<sfw  xmlns="&ns_sfw;">
		<slices></slices>
		<sliceSourceBounds  bottomLeftOrigin="true" height="150.3901825" width="398.3674316" x="0" y="0.0000067"></sliceSourceBounds>
	</sfw>
</metadata>
<g>
	<g>
		<path class="st0" d="M105.974205,83.0600967v-0.0032196c0-7.3044968-4.1208801-13.6408997-10.1681366-16.8180237
			L46.909729,44.0460358c-0.3248787-0.1722069-0.6854515-0.2680244-1.0769043-0.2680244
			c-1.2750816,0-2.3162918,1.0363045-2.3162918,2.3130226v13.0122566c0,1.7363777,1.0282249,3.2323914,2.5047073,3.9162064
			L85.790596,79.5353928c1.3725357,0.5798645,2.3341446,1.939415,2.3341446,3.524704v0.003273
			c0,1.5837021-0.9616089,2.9416199-2.3341446,3.5231171l-39.7693558,16.5158997
			c-1.4764824,0.683815-2.5047073,2.1781921-2.5047073,3.914566v13.0138931c0,1.2750854,1.0412102,2.3130264,2.3162918,2.3130264
			c0.3914528,0,0.7520256-0.0975037,1.0769043-0.2663879L95.8060684,99.884613
			c6.0472565-3.177124,10.1681366-9.5151596,10.1681366-16.8196106V83.0600967z"/>
		<path class="st0" d="M134.6529846,83.0645065c0,37.1786499-30.1421738,67.325676-67.3289032,67.325676
			C30.1405334,150.3901825,0,120.2431564,0,83.0645065C0,45.876152,30.1405334,15.7323456,67.3240814,15.7323456
			C104.5108109,15.7323456,134.6529846,45.876152,134.6529846,83.0645065 M67.3240814,27.2811031
			c-31.0989113,0-56.3178139,24.9736309-56.3178139,55.7834015c0,30.7967377,25.2189026,55.7752304,56.3178139,55.7752304
			c31.0988693,0,56.3161392-24.9784927,56.3161392-55.7752304C123.6402206,52.254734,98.4229507,27.2811031,67.3240814,27.2811031"
			/>
		<path class="st0" d="M275.650177,122.2986603c-1.5999451,0-2.9042664-1.3010559-2.9042664-2.9058228v-72.663147
			c0-1.6048203,1.3043213-2.9058762,2.9042664-2.9058762h16.5548706c1.6080322,0,2.9058838,1.3010559,2.9058838,2.9058762v72.663147
			c0,1.6047668-1.2978516,2.9058228-2.9058838,2.9058228H275.650177z"/>
		<path class="st0" d="M206.4190063,122.2986603h0.0048523c9.1724396,0,17.1412659-5.1798859,21.1305389-12.7767487
			l27.8892365-61.4391632c0.2111664-0.4044418,0.3330078-0.8657875,0.3330078-1.3546906
			c0-1.6031876-1.3026886-2.9042435-2.9026642-2.9042435h-16.3550873c-2.1797791,0-4.0623322,1.2880707-4.9167175,3.1446533
			L210.848465,96.9384842c-0.730957,1.721756-2.4364624,2.9318542-4.426239,2.9318542h-0.0081329
			c-1.9897766,0-3.6952667-1.2100983-4.4245911-2.9318542l-20.7552948-49.9700165
			c-0.8592834-1.8565826-2.7385712-3.1446533-4.9167786-3.1446533h-16.35672c-1.6031799,0-2.9042358,1.3010559-2.9042358,2.9042435
			c0,0.488903,0.1234283,0.9502487,0.332962,1.3546906l27.8876343,61.4391632
			c3.9909058,7.5968628,11.9597321,12.7767487,21.1338043,12.7767487H206.4190063z"/>
		<path class="st0" d="M297.3371887,13.4102011c0,7.4035883-6.0050659,13.4053926-13.4102478,13.4053926
			c-7.401947,0-13.4085999-6.0018044-13.4085999-13.4053926C270.5183411,6.0050273,276.5249939,0,283.9269409,0
			C291.3321228,0,297.3371887,6.0050273,297.3371887,13.4102011"/>
		<path class="st0" d="M356.7446899,122.2986603c23.7423706,0,41.6227417-14.9403152,41.6227417-33.3663788V46.7296906
			c0-1.6048203-1.3011169-2.9058762-2.9075623-2.9058762h-16.5645752c-1.6048279,0-2.9026794,1.3010559-2.9026794,2.9058762
			l-0.0162048,38.2718048c0,8.2400818-8.61203,14.9224243-19.23172,14.9224243
			c-10.6197205,0-19.2333374-6.6823425-19.2333374-14.9224243l-0.0146484-38.2718048
			c0-1.6048203-1.299469-2.9058762-2.9075012-2.9058762h-16.5646057c-1.6032104,0-2.9058838,1.3010559-2.9058838,2.9058762
			v42.2025909C315.1187134,107.358345,332.9989929,122.2986603,356.7446899,122.2986603"/>
	</g>
</g>
</svg>
