<?xml version="1.0" encoding="UTF-8" standalone="no"?>
<svg
   width="1000"
   height="259"
   viewBox="0 0 999.99986 259"
   version="1.1"
   id="svg65"
   sodipodi:docname="WeTV_logo.svg"
   inkscape:version="1.1.1 (3bf5ae0d25, 2021-09-20)"
   xmlns:inkscape="http://www.inkscape.org/namespaces/inkscape"
   xmlns:sodipodi="http://sodipodi.sourceforge.net/DTD/sodipodi-0.dtd"
   xmlns:xlink="http://www.w3.org/1999/xlink"
   xmlns="http://www.w3.org/2000/svg"
   xmlns:svg="http://www.w3.org/2000/svg"
   xmlns:rdf="http://www.w3.org/1999/02/22-rdf-syntax-ns#"
   xmlns:cc="http://creativecommons.org/ns#"
   xmlns:dc="http://purl.org/dc/elements/1.1/">
  <metadata
     id="metadata71">
    <rdf:RDF>
      <cc:Work
         rdf:about="">
        <dc:format>image/svg+xml</dc:format>
        <dc:type
           rdf:resource="http://purl.org/dc/dcmitype/StillImage" />
      </cc:Work>
    </rdf:RDF>
  </metadata>
  <defs
     id="defs69">
    <filter
       inkscape:label="Blur Double"
       inkscape:menu="Blurs"
       inkscape:menu-tooltip="Overlays two copies with different blur amounts and modifiable blend and composite"
       style="color-interpolation-filters:sRGB"
       id="filter1012"
       x="-4.0589297e-05"
       width="1.0000812"
       y="-0.00028294488"
       height="1.0005659">
      <feGaussianBlur
         stdDeviation="0.007318099"
         result="fbSourceGraphic"
         id="feGaussianBlur1004" />
      <feGaussianBlur
         stdDeviation="0.01"
         in="SourceGraphic"
         result="result1"
         id="feGaussianBlur1006" />
      <feComposite
         in2="result1"
         operator="arithmetic"
         in="fbSourceGraphic"
         k2="0.5"
         k3="0.5"
         result="result2"
         id="feComposite1008"
         k1="0"
         k4="0" />
      <feBlend
         in2="fbSourceGraphic"
         mode="normal"
         result="result3"
         id="feBlend1010" />
    </filter>
    <filter
       inkscape:label="Cross Blur"
       inkscape:menu="Blurs"
       inkscape:menu-tooltip="Overlays two copies with different blur amounts and modifiable blend and composite"
       style="color-interpolation-filters:sRGB"
       id="filter1012-3"
       x="-0.044610988"
       width="1.089222"
       y="-0.41756484"
       height="1.8351297">
      <feGaussianBlur
         stdDeviation="11.64243"
         result="fbSourceGraphic"
         id="feGaussianBlur1004-2" />
      <feGaussianBlur
         stdDeviation="0.01"
         in="SourceGraphic"
         result="result1"
         id="feGaussianBlur1006-0" />
      <feComposite
         in2="result1"
         operator="arithmetic"
         in="fbSourceGraphic"
         k2="0.5"
         k3="0.5"
         result="result2"
         id="feComposite1008-6"
         k1="0"
         k4="0" />
      <feBlend
         in2="fbSourceGraphic"
         mode="normal"
         result="fbSourceGraphic"
         id="feBlend1010-7" />
      <feColorMatrix
         result="fbSourceGraphicAlpha"
         in="fbSourceGraphic"
         values="0 0 0 -1 0 0 0 0 -1 0 0 0 0 -1 0 0 0 0 1 0"
         id="feColorMatrix1461" />
      <feColorMatrix
         id="feColorMatrix1463"
         in="fbSourceGraphic"
         values="1 0 0 0 0 0 1 0 0 0 0 0 1 0 0 -0.2125 -0.7154 -0.0721 1 0 "
         result="colormatrix" />
      <feComposite
         in2="colormatrix"
         id="feComposite1465"
         in="fbSourceGraphic"
         operator="arithmetic"
         k2="1"
         k3="2.06587"
         k4="0"
         result="composite"
         k1="0" />
      <feGaussianBlur
         id="feGaussianBlur1467"
         stdDeviation="7.37159 0.01"
         result="blur1" />
      <feGaussianBlur
         id="feGaussianBlur1469"
         in="composite"
         stdDeviation="0.01 13.8953"
         result="blur2" />
      <feBlend
         in2="blur1"
         id="feBlend1471"
         in="blur2"
         mode="screen"
         result="blend" />
    </filter>
    <linearGradient
       inkscape:collect="always"
       xlink:href="#gradient3"
       id="linearGradient295"
       gradientUnits="userSpaceOnUse"
       x1="0.23565701"
       y1="1.03371"
       x2="0.596798"
       y2="0.051317099" />
    <linearGradient
       gradientUnits="userSpaceOnUse"
       x1="0.23565701"
       y1="1.03371"
       x2="0.596798"
       y2="0.051317099"
       id="gradient3">
      <stop
         offset="1e-07"
         stop-color="#61ba09"
         stop-opacity="1"
         id="stop14" />
      <stop
         offset="1"
         stop-color="#b5ff25"
         stop-opacity="1"
         id="stop16" />
    </linearGradient>
    <linearGradient
       id="SVGID_1_"
       gradientUnits="userSpaceOnUse"
       x1="52.1721"
       y1="12.9052"
       x2="52.1721"
       y2="107.8962">
      <stop
         offset="0"
         style="stop-color:#F9B93B"
         id="stop405" />
      <stop
         offset="1"
         style="stop-color:#FA7535"
         id="stop407" />
    </linearGradient>
    <linearGradient
       id="SVGID_2_"
       gradientUnits="userSpaceOnUse"
       x1="76.904999"
       y1="659.89001"
       x2="76.904999"
       y2="780.55872"
       gradientTransform="translate(0,-659.89)">
      <stop
         offset="0"
         style="stop-color:#53C4FE"
         id="stop412" />
      <stop
         offset="1"
         style="stop-color:#0D84F4"
         id="stop414" />
    </linearGradient>
    <linearGradient
       id="SVGID_3_"
       gradientUnits="userSpaceOnUse"
       x1="62.335201"
       y1="673.99323"
       x2="62.335201"
       y2="766.5932"
       gradientTransform="translate(0,-659.89)">
      <stop
         offset="0"
         style="stop-color:#AEF922"
         id="stop419" />
      <stop
         offset="1"
         style="stop-color:#62BB0D"
         id="stop421" />
    </linearGradient>
    <linearGradient
       id="SVGID_4_"
       gradientUnits="userSpaceOnUse"
       x1="58.866001"
       y1="698.57538"
       x2="58.866001"
       y2="741.86401"
       gradientTransform="translate(0,-659.89)">
      <stop
         offset="0"
         style="stop-color:#FFFFFF"
         id="stop426" />
      <stop
         offset="0.6"
         style="stop-color:#FFFFFF"
         id="stop428" />
      <stop
         offset="1"
         style="stop-color:#E5F6D2"
         id="stop430" />
    </linearGradient>
    <linearGradient
       inkscape:collect="always"
       xlink:href="#gradient3"
       id="linearGradient971"
       gradientUnits="userSpaceOnUse"
       x1="0.23565701"
       y1="1.03371"
       x2="0.596798"
       y2="0.051317099" />
    <linearGradient
       inkscape:collect="always"
       xlink:href="#gradient3"
       id="linearGradient973"
       gradientUnits="userSpaceOnUse"
       x1="0.23565701"
       y1="1.03371"
       x2="0.596798"
       y2="0.051317099" />
  </defs>
  <sodipodi:namedview
     pagecolor="#ffffff"
     bordercolor="#666666"
     borderopacity="1"
     objecttolerance="10"
     gridtolerance="10"
     guidetolerance="10"
     inkscape:pageopacity="0"
     inkscape:pageshadow="2"
     inkscape:window-width="1366"
     inkscape:window-height="705"
     id="namedview67"
     showgrid="false"
     inkscape:zoom="0.70710678"
     inkscape:cx="504.16714"
     inkscape:cy="197.28279"
     inkscape:window-x="-8"
     inkscape:window-y="-8"
     inkscape:window-maximized="1"
     inkscape:current-layer="svg65"
     inkscape:document-rotation="0"
     inkscape:pagecheckerboard="0" />
  <!-- Generated by Pixelmator Pro 2.0.3 -->
  <g
     id="g161"
     transform="matrix(1.5060884,0,0,1.505814,633.12063,99.517529)"
     style="display:inline">
    <g
       fill="url(#gradient3)"
       stroke="none"
       transform="matrix(0.68038985,0,0,0.67716536,-179.83285,-4.3284638)"
       id="g72"
       style="fill:url(#linearGradient295)">
      <g
         id="g435"
         transform="matrix(2.1096673,0,0,2.1049384,-963.84728,-559.45196)"
         style="fill:url(#linearGradient973)">
        <linearGradient
           id="linearGradient1431"
           gradientUnits="userSpaceOnUse"
           x1="52.1721"
           y1="12.9052"
           x2="52.1721"
           y2="107.8962"
           style="fill:url(#linearGradient295)">
          <stop
             offset="0"
             style="stop-color:#F9B93B;fill:url(#linearGradient295)"
             id="stop1427" />
          <stop
             offset="1"
             style="stop-color:#FA7535;fill:url(#linearGradient295)"
             id="stop1429" />
        </linearGradient>
        <linearGradient
           id="linearGradient1437"
           gradientUnits="userSpaceOnUse"
           x1="76.904999"
           y1="659.89001"
           x2="76.904999"
           y2="780.55872"
           gradientTransform="translate(0,-659.89)"
           style="fill:url(#linearGradient295)">
          <stop
             offset="0"
             style="stop-color:#53C4FE;fill:url(#linearGradient295)"
             id="stop1433" />
          <stop
             offset="1"
             style="stop-color:#0D84F4;fill:url(#linearGradient295)"
             id="stop1435" />
        </linearGradient>
        <linearGradient
           id="linearGradient1443"
           gradientUnits="userSpaceOnUse"
           x1="62.335201"
           y1="673.99323"
           x2="62.335201"
           y2="766.5932"
           gradientTransform="translate(0,-659.89)"
           style="fill:url(#linearGradient295)">
          <stop
             offset="0"
             style="stop-color:#AEF922;fill:url(#linearGradient295)"
             id="stop1439" />
          <stop
             offset="1"
             style="stop-color:#62BB0D;fill:url(#linearGradient295)"
             id="stop1441" />
        </linearGradient>
        <linearGradient
           id="linearGradient1451"
           gradientUnits="userSpaceOnUse"
           x1="58.866001"
           y1="698.57538"
           x2="58.866001"
           y2="741.86401"
           gradientTransform="translate(0,-659.89)"
           style="fill:url(#linearGradient295)">
          <stop
             offset="0"
             style="stop-color:#FFFFFF;fill:url(#linearGradient295)"
             id="stop1445" />
          <stop
             offset="0.6"
             style="stop-color:#FFFFFF;fill:url(#linearGradient295)"
             id="stop1447" />
          <stop
             offset="1"
             style="stop-color:#E5F6D2;fill:url(#linearGradient295)"
             id="stop1449" />
        </linearGradient>
        <g
           id="g1350"
           transform="translate(289.29488,222.45512)"
           style="fill:url(#linearGradient971)">
          <path
             class="st1"
             d="M 98.7,50.6 C 88.2,42.1 75.8,35.5 62.8,29.2 50.6,23.1 37.7,18.1 24.5,14.1 c 0,0 0,0 0,0.1 C 24.1,14.1 23.8,14 23.4,13.8 14.9,11.2 7.4,14.2 4,23.4 -0.2,34.9 0,47.8 0,60.4 0,73 -0.1,85.7 3.9,97.2 c 3.7,10.6 10.9,12.2 19.4,9.6 0.2,-0.1 0.7,-0.2 1.1,-0.4 0,0.1 0,0.2 0,0.3 13.4,-4.1 26.5,-9.3 39.1,-15.6 12.7,-6.3 24.9,-13 35.3,-21.3 7.8,-6.2 7,-13.4 -0.1,-19.2 z"
             id="path410"
             style="fill:url(#SVGID_1_);stroke:none" />
          <path
             class="st2"
             d="M 127.4,72.3 C 136,63.3 135,55 127.3,47.9 116,37.3 102.6,28.7 88.6,20.6 75,12.7 60.6,6.2 45.8,0.9 37.4,-2 28.3,2.3 25.3,10.7 c -0.3,0.8 -0.5,1.6 -0.6,2.4 -5.8,31.2 -5.8,63.2 -0.1,94.4 1.6,8.7 10,14.5 18.7,12.9 0.8,-0.2 1.7,-0.4 2.5,-0.7 15.1,-5.4 29.6,-12.2 43.4,-20.3 13.8,-7.9 27.5,-16 38.2,-27.1 z"
             id="path417"
             style="fill:url(#SVGID_2_);stroke:none" />
          <path
             class="st3"
             d="m 24.5,14.1 c -5.5,30.6 -5.6,62 -0.1,92.6 13.4,-4.1 26.5,-9.3 39.1,-15.6 12.7,-6.3 24.9,-13 35.3,-21.3 7.8,-6.2 7,-13.4 -0.1,-19.2 C 88.2,42.1 75.8,35.5 62.8,29.2 50.6,23.1 37.7,18.1 24.5,14.1 Z"
             id="path424"
             style="fill:url(#SVGID_3_);stroke:none" />
          <path
             class="st4"
             d="m 79.4,58.1 c 0,0 -4.2,-3.9 -18.1,-11 -13.7,-7 -19.4,-8.2 -19.4,-8.2 -2,-0.6 -3.2,0 -3.7,2.3 0,0 -1.3,1.9 -1.3,19.1 0,17.2 1.3,19.3 1.3,19.3 0.4,2.1 1.4,2.8 3.7,2.3 0,0 3.9,-0.6 19.4,-8.4 15.5,-7.8 18.1,-10.8 18.1,-10.8 1.7,-1.7 2.1,-2.8 0,-4.6 z"
             id="path433"
             style="fill:url(#SVGID_4_);stroke:none" />
        </g>
      </g>
    </g>
    <g
       fill="#ffffff"
       fill-opacity="1"
       stroke="none"
       transform="matrix(5.3957246,0,0,5.3701532,-184.63001,-32.818641)"
       id="g92"
       style="fill:#000000">
      <path
         vector-effect="none"
         fill-rule="nonzero"
         d="m 1.0464,0.0916571 h 2.97897 c 0.46697,0 0.85897,0.3519999 0.90903,0.8162289 L 6.2496,13.0939 H 6.30674 L 12.1319,0.6192 c 0.1502,-0.321829 0.4734,-0.5275429 0.8283,-0.5275429 h 2.8032 c 0.4439,0 0.8236,0.3186289 0.9004,0.7558859 L 18.8793,13.4375 h 0.0572 L 23.9776,0.670171 c 0.1378,-0.349028 0.475,-0.5785139 0.8503,-0.5785139 h 2.512 c 0.6576,0 1.1001,0.6733719 0.8393,1.2770329 L 20.2059,19.8167 c -0.1446,0.3348 -0.4745,0.5515 -0.8393,0.5515 h -2.6153 c -0.4425,0 -0.8217,-0.317 -0.8999,-0.7527 L 13.4665,6.33486 H 13.4094 L 7.2384,19.8341 C 7.0896,20.1595 6.76457,20.3682 6.40686,20.3682 H 3.93851 c -0.45028,0 -0.83337,-0.3277 -0.90331,-0.7725 L 0.142857,1.14766 C 0.0562286,0.592914 0.485029,0.0916571 1.0464,0.0916571"
         id="path90"
         style="fill:#000000" />
    </g>
    <g
       fill="#ffffff"
       fill-opacity="1"
       stroke="none"
       transform="matrix(5.3957246,0,0,5.3701532,-184.63001,-32.818641)"
       id="g98"
       style="fill:#000000">
      <path
         vector-effect="none"
         fill-rule="nonzero"
         d="m 39.077,17.3104 c 0.4483,0.3673 0.4409,1.0471 -0.0036,1.4187 -0.6185,0.5171 -1.3113,0.9395 -2.0784,1.267 -1.1168,0.477 -2.2387,0.7161 -3.3651,0.7161 -1.0694,0 -2.0525,-0.1719 -2.9499,-0.5156 -0.8976,-0.3436 -1.6469,-0.835 -2.248,-1.4748 -0.6014,-0.6395 -1.0409,-1.4077 -1.3175,-2.3056 -0.277,-0.8971 -0.3392,-1.8996 -0.186,-3.0071 0.1524,-1.1072 0.4912,-2.1094 1.0166,-3.007 0.5248,-0.89719 1.1788,-1.66541 1.9619,-2.30541 0.7826,-0.63955 1.6704,-1.1312 2.6633,-1.47498 0.9924,-0.34354 2.0235,-0.51542 3.093,-0.51542 0.9925,0 1.8711,0.17188 2.6348,0.51542 0.7634,0.34378 1.384,0.83543 1.8614,1.47498 1.312,1.75725 1.32,4.14901 0.9221,6.21101 0,4e-4 -2e-4,9e-4 -2e-4,0.0013 -0.0508,0.2592 -0.2784,0.4462 -0.5424,0.4462 -0.8092,0 -2.5157,2e-4 -3.4942,2e-4 -1.3691,0 -2.7383,0 -4.1074,0 -0.638,0 -1.2759,0 -1.9139,0 0.0572,0.8213 0.3388,1.475 0.8448,1.9619 0.5056,0.4868 1.1788,0.7302 2.019,0.7302 0.7061,0 1.3218,-0.1574 1.8473,-0.4724 0.3161,-0.1897 0.6167,-0.4124 0.9017,-0.6679 0.3342,-0.2997 0.8375,-0.3093 1.185,-0.0249 l 1.2557,1.0281 m -1.9817,-5.4768 c 0.1145,-0.7253 -0.0384,-1.3461 -0.458,-1.86149 -0.4202,-0.51565 -1.0218,-0.77325 -1.8044,-0.77325 -0.4775,0 -0.907,0.07634 -1.2887,0.22903 -0.3821,0.15314 -0.7159,0.34857 -1.0023,0.58701 -0.2864,0.239 -0.5252,0.5156 -0.7158,0.8306 -0.1911,0.315 -0.3248,0.6443 -0.401,0.9879 h 5.6702 v 2e-4"
         id="path96"
         style="fill:#000000" />
    </g>
    <g
       fill="#ffffff"
       fill-opacity="1"
       stroke="none"
       transform="matrix(5.3957246,0,0,5.3701532,-184.63001,-32.818641)"
       id="g104"
       style="fill:#000000">
      <path
         vector-effect="none"
         fill-rule="nonzero"
         d="m 48.4389,4.04389 h -4.7365 c -0.5545,0 -0.9813,-0.4896 -0.9058,-1.03909 L 43.0889,0.881143 C 43.1511,0.428571 43.5378,0.0916571 43.9947,0.0916571 H 58.187 c 0.5545,0 0.9812,0.4895999 0.9058,1.0390829 L 58.8005,3.2544 c -0.0624,0.45257 -0.449,0.78949 -0.9059,0.78949 H 52.9065 L 50.7259,19.581 c -0.0633,0.4515 -0.4496,0.7872 -0.9053,0.7872 h -2.6213 c -0.5554,0 -0.9826,-0.4912 -0.9054,-1.0413 l 2.145,-15.28301"
         id="path102"
         style="fill:#000000" />
    </g>
    <g
       fill="#ffffff"
       fill-opacity="1"
       stroke="none"
       transform="matrix(5.3957246,0,0,5.3701532,-184.63001,-32.818641)"
       id="g110"
       style="fill:#000000">
      <path
         vector-effect="none"
         fill-rule="nonzero"
         d="m 61.1328,0.0916571 h 3.1927 c 0.4238,0 0.7918,0.2911999 0.8896,0.7033139 L 68.1986,13.3801 H 68.256 L 74.9586,0.581714 c 0.1577,-0.301257 0.4697,-0.4900569 0.8099,-0.4900569 h 2.6802 c 0.696,0 1.1369,0.7469719 0.8002,1.3563429 L 69.0608,19.896 c -0.1609,0.2914 -0.4674,0.4722 -0.8005,0.4722 h -2.3332 c -0.4165,0 -0.7801,-0.2813 -0.8848,-0.6843 L 60.2478,1.23589 c -0.1504,-0.578976 0.2866,-1.1442329 0.885,-1.1442329"
         id="path108"
         style="fill:#000000" />
    </g>
  </g>
</svg>
