<?xml version="1.0" encoding="UTF-8"?>
<svg version="1.1" xmlns="http://www.w3.org/2000/svg" width="1200" height="456">
<path d="M0 0 C100.98 0 201.96 0 306 0 C306 25.41 306 50.82 306 77 C239.01 77 172.02 77 103 77 C103 89.21 103 101.42 103 114 C169.99 114 236.98 114 306 114 C306 177.03 306 240.06 306 305 C205.02 305 104.04 305 0 305 C0 279.59 0 254.18 0 228 C66.99 228 133.98 228 203 228 C203 215.79 203 203.58 203 191 C136.01 191 69.02 191 0 191 C0 127.97 0 64.94 0 0 Z " fill="#000000" transform="translate(843,74)"/>
<path d="M0 0 C102.3 0 204.6 0 310 0 C310 61.71 310 123.42 310 187 C247.135 187.495 247.135 187.495 183 188 C194.68132765 198.98901491 194.68132765 198.98901491 206.5234375 209.7734375 C211.16788098 213.94904126 215.73903883 218.20472003 220.32226562 222.44726562 C223.0671749 224.98766478 225.81459647 227.52534042 228.5625 230.0625 C229.10036133 230.55911133 229.63822266 231.05572266 230.19238281 231.56738281 C235.28909756 236.27086098 240.40096073 240.95770456 245.51611328 245.64111328 C248.01164407 247.92642496 250.50574527 250.2132958 253 252.5 C253.99999325 253.41667404 254.99999324 254.3333407 256 255.25 C266 264.41666667 276 273.58333333 286 282.75 C286.4957251 283.20431396 286.9914502 283.65862793 287.50219727 284.12670898 C288.49527911 285.03723635 289.48795958 285.9482017 290.48022461 286.85961914 C293.08283529 289.24909052 295.69339376 291.6290223 298.31640625 293.99609375 C298.85974609 294.48851562 299.40308594 294.9809375 299.96289062 295.48828125 C301.4744877 296.85776236 302.98910512 298.22390754 304.50390625 299.58984375 C306.62592436 301.63880333 308.27599184 303.62772719 310 306 C295.58748322 306.25770502 281.17532688 306.45056263 266.76097393 306.56993389 C260.06693671 306.62650182 253.37454738 306.70491099 246.68139648 306.82983398 C240.21678837 306.94973043 233.75366892 307.0152042 227.28803444 307.04364967 C224.82677596 307.06390873 222.36559516 307.10347276 219.90497398 307.16303062 C198.57422761 307.65859481 198.57422761 307.65859481 192.54337025 302.17239857 C190.48831987 299.92466367 188.74958121 297.48911826 187 295 C185.62257097 293.70688991 184.21240878 292.44616262 182.75 291.25 C179.59493225 288.55664948 176.68285087 285.70430848 173.77734375 282.74609375 C171.93406426 280.93522357 170.02177201 279.24678646 168.0625 277.5625 C164.53365237 274.52320349 161.26994973 271.28983153 158.00390625 267.97265625 C155.41753849 265.42662171 152.6846472 263.07978443 149.93359375 260.71484375 C147.43430862 258.49830603 145.11718116 256.12837719 142.77734375 253.74609375 C140.93406426 251.93522357 139.02177201 250.24678646 137.0625 248.5625 C134.25423653 246.14382221 131.60029407 243.64100317 129 241 C126.41990785 238.37959391 123.78896393 235.89676588 121 233.5 C117.48998489 230.48358077 114.24948724 227.26904868 111.00390625 223.97265625 C108.41753849 221.42662171 105.6846472 219.07978443 102.93359375 216.71484375 C100.43430862 214.49830603 98.11718116 212.12837719 95.77734375 209.74609375 C93.93406426 207.93522357 92.02177201 206.24678646 90.0625 204.5625 C86.47497264 201.47652987 83.14978267 198.19605648 79.859375 194.796875 C77.74552406 192.67947538 77.74552406 192.67947538 74 190 C73.67 228.28 73.34 266.56 73 306 C48.91 306 24.82 306 0 306 C0 243.3 0 180.6 0 116 C74.91 116 149.82 116 227 116 C227 101.48 227 86.96 227 72 C152.09 72 77.18 72 0 72 C0 48.24 0 24.48 0 0 Z " fill="#000000" transform="translate(393,74)"/>
<path d="M0 0 C0 76.23 0 152.46 0 231 C37.95 231 75.9 231 115 231 C115 255.75 115 280.5 115 306 C91.53869256 306.09032131 68.07752606 306.16399431 44.61608887 306.20724869 C33.72234876 306.22786696 22.8287244 306.2559736 11.93505859 306.30175781 C2.43926255 306.34164796 -7.05644965 306.36743816 -16.55232716 306.37635398 C-21.5795562 306.38156501 -26.6065454 306.39379769 -31.63369751 306.42292023 C-36.36804654 306.45012365 -41.10205751 306.45843501 -45.83647728 306.45243073 C-47.57147243 306.45352876 -49.3064792 306.46145327 -51.04140663 306.4768219 C-67.31799371 306.6139013 -67.31799371 306.6139013 -74 302 C-75.83984375 300.18359375 -75.83984375 300.18359375 -76.9375 298.4375 C-77.31777344 297.85871094 -77.69804688 297.27992188 -78.08984375 296.68359375 C-79.69296002 293.71817267 -80.12509302 291.24303905 -80.12584114 287.939188 C-80.12844889 287.10956759 -80.13105664 286.27994718 -80.13374341 285.42518675 C-80.13151268 284.51366327 -80.12928196 283.60213979 -80.12698364 282.66299438 C-80.12854363 281.69423382 -80.13010362 280.72547326 -80.13171089 279.72735631 C-80.13571484 276.46486943 -80.13253319 273.20242868 -80.12939453 269.93994141 C-80.13074914 267.60547356 -80.13252941 265.27100592 -80.13470459 262.9365387 C-80.13928038 256.57285941 -80.13748651 250.20919627 -80.1343255 243.84551668 C-80.13204952 237.83747445 -80.13378824 231.8294337 -80.1352527 225.82139151 C-80.13810922 213.15349923 -80.13482169 200.48561417 -80.12945233 187.81772308 C-80.12501915 177.02756692 -80.12573076 166.23742157 -80.13037109 155.44726562 C-80.13577489 142.87626575 -80.13779781 130.30527229 -80.13475883 117.73427141 C-80.13444036 116.3808043 -80.13412599 115.02733719 -80.13381577 113.67387009 C-80.13358435 112.67548886 -80.13358435 112.67548886 -80.13334826 111.65693832 C-80.13249768 107.04559909 -80.1339654 102.43426418 -80.13629532 97.82292557 C-80.14316877 81.54822454 -80.11464178 65.27433365 -80 49 C-79.99356067 48.01005004 -79.98712133 47.02010008 -79.98048687 46.00015163 C-79.94246626 40.57726378 -79.88224169 35.15559296 -79.78251624 29.73347354 C-79.75577049 28.16086485 -79.73526662 26.58813479 -79.72169328 25.01535726 C-79.70158442 22.9052401 -79.6568238 20.79712684 -79.60470581 18.68759155 C-79.58460386 17.52956717 -79.56450191 16.37154278 -79.54379082 15.17842674 C-78.69595194 10.2228562 -76.1988908 7.10666843 -72.5625 3.75 C-52.56178338 -9.90902599 -24.2197782 0 0 0 Z " fill="#000000" transform="translate(130,74)"/>
<path d="M0 0 C23.33092365 -0.09032222 46.66170557 -0.16399483 69.9927597 -0.20724869 C80.82596601 -0.22786673 91.65905591 -0.25597294 102.4921875 -0.30175781 C111.93524584 -0.34164866 121.37821986 -0.36743832 130.82136011 -0.37635398 C135.82064407 -0.38156489 140.81968684 -0.39379681 145.81889343 -0.42292023 C150.52697813 -0.45012477 155.23472289 -0.45843479 159.94287872 -0.45243073 C161.66819864 -0.45352871 163.39353024 -0.46145256 165.11878204 -0.4768219 C182.96464851 -0.6279667 182.96464851 -0.6279667 189.49782562 5.37664413 C194.43477562 10.74801039 195.25064462 16.30069672 195.24050903 23.36520386 C195.24221788 24.08495207 195.24392673 24.80470028 195.24568737 25.54625905 C195.24896871 27.94614406 195.23800113 30.34574642 195.22705078 32.74560547 C195.22648637 34.47060642 195.2268038 36.19560785 195.22793579 37.92060852 C195.22850915 42.59576618 195.2167575 47.27082102 195.20278788 51.9459548 C195.19027777 56.83466157 195.18910979 61.72337075 195.18673706 66.61209106 C195.18052312 75.86610621 195.16411345 85.12007405 195.14403808 94.37406838 C195.11749442 106.88144257 195.10670574 119.38882972 195.09503365 131.89622498 C195.07623281 151.59751874 195.03638654 171.29871269 195 191 C168.93 191 142.86 191 116 191 C116 153.38 116 115.76 116 77 C77.72 77 39.44 77 0 77 C0 51.59 0 26.18 0 0 Z " fill="#000000" transform="translate(167,74)"/>
<path d="M0 0 C25.41 0 50.82 0 77 0 C77 101.31 77 202.62 77 307 C51.59 307 26.18 307 0 307 C0 205.69 0 104.38 0 0 Z " fill="#000000" transform="translate(734,73)"/>
<path d="M0 0 C26.07 0 52.14 0 79 0 C79 50.82 79 101.64 79 154 C52.93 154 26.86 154 0 154 C0 103.18 0 52.36 0 0 Z " fill="#000000" transform="translate(283,302)"/>
<path d="M0 0 C6.27 0 12.54 0 19 0 C19.09262117 18.15007424 19.1639913 36.30006731 19.20724869 54.45032692 C19.22786829 62.87793654 19.25597728 71.30539656 19.30175781 79.73291016 C19.34164413 87.0788929 19.3674372 94.42476729 19.37635398 101.77085531 C19.38156573 105.66010348 19.39380236 109.54904169 19.42292023 113.43819046 C19.45011794 117.1006261 19.45843636 120.76262479 19.45243073 124.42515182 C19.45405179 126.4064568 19.47555182 128.38771443 19.49768066 130.36889648 C19.46142802 138.18970816 18.87698777 142.00926197 13.40234375 147.64453125 C8.86938452 151.25881075 5.99676148 152.12533045 0.28633118 152.12025452 C-0.90418854 152.12162918 -2.09470825 152.12300385 -3.32130432 152.12442017 C-4.62897263 152.12082489 -5.93664093 152.11722961 -7.28393555 152.11352539 C-8.67352293 152.11324335 -10.06311046 152.11340159 -11.45269775 152.1139679 C-15.22720613 152.1142552 -19.00168284 152.10836926 -22.77618384 152.10139394 C-26.71999435 152.09514928 -30.66380555 152.09455572 -34.60762024 152.09336853 C-42.07675485 152.0902585 -49.54587485 152.08204953 -57.01500303 152.07201904 C-65.51793178 152.06084772 -74.02086122 152.05534488 -82.52379549 152.05032361 C-100.01587235 152.03986665 -117.50793407 152.02207248 -135 152 C-135 145.4 -135 138.8 -135 132 C-132.73067848 131.99453156 -132.73067848 131.99453156 -130.41551208 131.98895264 C-116.15760371 131.95201048 -101.89994343 131.8944828 -87.64221096 131.81609726 C-80.31217022 131.77632524 -72.98223655 131.7439235 -65.65209961 131.72900391 C-59.26149021 131.71597776 -52.87111659 131.68898886 -46.48063999 131.64538693 C-43.09836152 131.62279333 -39.71637361 131.60708803 -36.33401299 131.60811615 C-32.55361427 131.60575174 -28.77413656 131.57871144 -24.99389648 131.54589844 C-23.87827332 131.5509288 -22.76265015 131.55595917 -21.61322021 131.56114197 C-15.18648639 131.47484753 -11.22516296 130.8322134 -6 127 C-2.12895301 122.82334404 -0.88331526 119.75231138 -0.84178162 114.12153625 C-0.8319928 113.11612793 -0.82220398 112.1107196 -0.81211853 111.07484436 C-0.80636307 109.9728923 -0.8006076 108.87094025 -0.79467773 107.7355957 C-0.78477814 106.57448273 -0.77487854 105.41336975 -0.76467896 104.21707153 C-0.73303099 100.36999568 -0.70829339 96.52290748 -0.68359375 92.67578125 C-0.66302707 90.01205517 -0.64207863 87.34833485 -0.62062073 84.68461609 C-0.5707071 78.38424033 -0.52576334 72.08383928 -0.48259836 65.78341407 C-0.43321462 58.61053681 -0.37830071 51.43770525 -0.32291877 44.26487219 C-0.20911915 29.50995794 -0.10247186 14.75499734 0 0 Z " fill="#000000" transform="translate(1181,302)"/>
<path d="M0 0 C1.38855656 -0.00050935 2.77711341 -0.00276855 4.16566467 -0.00663757 C7.91952521 -0.01203748 11.67288861 0.00729798 15.42666006 0.03146338 C19.35661852 0.05280579 23.28657605 0.05216625 27.21658325 0.05415344 C33.80870086 0.06059106 40.40063221 0.08180738 46.99267578 0.11328125 C55.46380743 0.15367266 63.93481819 0.17098489 72.40603447 0.18059063 C79.68521913 0.18887783 86.96437802 0.2061127 94.24354029 0.22562814 C96.58683702 0.23170064 98.93013474 0.23683992 101.27343369 0.2419796 C104.94571323 0.2507383 108.61793235 0.26502332 112.29017448 0.2836895 C114.28781308 0.2927678 116.28547185 0.29699726 118.28312683 0.30111694 C119.4607811 0.30827225 120.63843536 0.31542755 121.85177612 0.32279968 C123.39642957 0.3292099 123.39642957 0.3292099 124.97228813 0.33574963 C127.27783203 0.4699707 127.27783203 0.4699707 128.27783203 1.4699707 C128.36415077 2.81264483 128.38489676 4.15971392 128.37548828 5.50512695 C128.37226563 6.31401367 128.36904297 7.12290039 128.36572266 7.95629883 C128.35734375 8.80643555 128.34896484 9.65657227 128.34033203 10.5324707 C128.33582031 11.38647461 128.33130859 12.24047852 128.32666016 13.12036133 C128.31483577 15.23692734 128.29689972 17.35345755 128.27783203 19.4699707 C127.35349113 19.47217054 127.35349113 19.47217054 126.41047668 19.47441483 C111.39450212 19.51151729 96.3787867 19.57057729 81.36300659 19.65387344 C74.10137578 19.69362969 66.8398528 19.72603942 59.578125 19.7409668 C53.24646871 19.75400114 46.91505002 19.78101088 40.58352757 19.82458377 C37.23300028 19.8471595 33.88302409 19.86079886 30.53237915 19.86185455 C26.78571013 19.86422208 23.03996642 19.89128757 19.29345703 19.92407227 C18.19077988 19.9190419 17.08810272 19.91401154 15.95201111 19.90882874 C9.61536737 19.99449551 4.50161572 20.65735549 -0.72216797 24.4699707 C-4.93954851 29.55245494 -5.83145846 34.02355992 -5.88038635 40.47505188 C-5.89506958 41.94942467 -5.89506958 41.94942467 -5.91004944 43.45358276 C-5.9158049 44.52029205 -5.92156036 45.58700134 -5.92749023 46.68603516 C-5.94233963 48.38425163 -5.94233963 48.38425163 -5.95748901 50.11677551 C-5.98905392 53.85557978 -6.01384176 57.59439676 -6.03857422 61.33325195 C-6.05914806 63.92685779 -6.08014465 66.52046031 -6.10154724 69.11405945 C-6.1510851 75.24083349 -6.19636193 81.36762542 -6.2395696 87.49444693 C-6.28901134 94.47148588 -6.34390367 101.44847863 -6.3992492 108.42547286 C-6.51294487 122.77359563 -6.61961744 137.12176423 -6.72216797 151.4699707 C-12.99216797 151.4699707 -19.26216797 151.4699707 -25.72216797 151.4699707 C-25.83802174 133.48484179 -25.92719645 115.49984135 -25.98122883 97.51441956 C-26.00698633 89.16304809 -26.04208961 80.81191305 -26.09936523 72.46069336 C-26.14927573 65.1798804 -26.18147683 57.89923871 -26.19261044 50.61825943 C-26.19911638 46.76463869 -26.21435501 42.91150782 -26.25081825 39.05804443 C-26.28489924 35.42672581 -26.29519698 31.79609618 -26.28770638 28.1646328 C-26.28972566 26.20514994 -26.31655742 24.24574118 -26.3442688 22.28645325 C-26.30263333 15.13512621 -25.82763117 9.77888832 -20.72216797 4.4699707 C-14.48388508 -0.74599405 -7.84832229 -0.07783248 0 0 Z " fill="#000000" transform="translate(25.72216796875,-0.469970703125)"/>
<path d="M0 0 C25.41 0 50.82 0 77 0 C77 25.74 77 51.48 77 78 C51.59 78 26.18 78 0 78 C0 52.26 0 26.52 0 0 Z M23 23 C23 32.9 23 42.8 23 53 C27.86435001 53.60804375 32.02731461 54.1248448 36.8125 54.09765625 C38.18341797 54.09390991 38.18341797 54.09390991 39.58203125 54.09008789 C40.70996094 54.08098389 41.83789062 54.07187988 43 54.0625 C46.63 54.041875 50.26 54.02125 54 54 C54 43.77 54 33.54 54 23 C43.77 23 33.54 23 23 23 Z " fill="#000000" transform="translate(167,188)"/>
</svg>
